<?xml version="1.0" encoding="utf-8"?>
<!-- Generator: Adobe Illustrator 17.1.0, SVG Export Plug-In . SVG Version: 6.00 Build 0)  -->
<!DOCTYPE svg PUBLIC "-//W3C//DTD SVG 1.1//EN" "http://www.w3.org/Graphics/SVG/1.1/DTD/svg11.dtd">
<svg version="1.1" id="Layer_1" xmlns="http://www.w3.org/2000/svg" xmlns:xlink="http://www.w3.org/1999/xlink" x="0px" y="0px"
	 viewBox="0 0 132 79.75" enable-background="new 0 0 132 79.75" xml:space="preserve">
<g>
	<rect x="17.497" y="6.324" fill="#FFFFFF" width="97.271" height="51.92"/>
	<path fill="#09193C" d="M116.268,67.121h-3V7.824H18.997v59.297h-3V6.324c0-0.828,0.671-1.5,1.5-1.5h97.271
		c0.829,0,1.5,0.672,1.5,1.5V67.121z"/>
	<rect x="17.497" y="56.744" fill="#09193C" width="97.271" height="3"/>
	<path fill="#09193C" d="M127.465,76.152H4.797c-0.829,0-1.5-0.672-1.5-1.5v-7.531c0-0.828,0.671-1.5,1.5-1.5h53.273
		c0.829,0,1.5,0.672,1.5,1.5v0.094h13.123v-0.094c0-0.828,0.671-1.5,1.5-1.5h53.272c0.829,0,1.5,0.672,1.5,1.5v7.531
		C128.965,75.48,128.294,76.152,127.465,76.152z M6.297,73.152h119.668v-4.531H75.694v0.094c0,0.828-0.671,1.5-1.5,1.5H58.071
		c-0.829,0-1.5-0.672-1.5-1.5v-0.094H6.297V73.152z"/>
	<path fill="#09193C" d="M49.834,46.812L37.083,34.061c-0.586-0.586-0.586-1.535,0-2.121l12.752-12.754l2.121,2.121L40.264,33
		l11.691,11.691L49.834,46.812z"/>
	<path fill="#09193C" d="M82.428,46.812l-2.121-2.121L92,33L80.307,21.307l2.121-2.121l12.754,12.754
		c0.281,0.281,0.439,0.663,0.439,1.06s-0.158,0.779-0.439,1.061L82.428,46.812z"/>
	
		<rect x="64.632" y="13.799" transform="matrix(0.8989 0.4381 -0.4381 0.8989 21.141 -25.6369)" fill="#09193C" width="3" height="38.4"/>
</g>
</svg>
